<?xml version="1.0" encoding="UTF-8" standalone="no"?><!DOCTYPE svg PUBLIC "-//W3C//DTD SVG 1.1//EN" "http://www.w3.org/Graphics/SVG/1.1/DTD/svg11.dtd"><svg width="100%" height="100%" viewBox="0 0 7466 2772" version="1.1" xmlns="http://www.w3.org/2000/svg" xmlns:xlink="http://www.w3.org/1999/xlink" xml:space="preserve" xmlns:serif="http://www.serif.com/" style="fill-rule:evenodd;clip-rule:evenodd;stroke-linejoin:round;stroke-miterlimit:2;"><g><g id="icon"><path d="M3047.48,-0l46.15,2.143c29.524,2.58 58.83,7.494 87.589,14.673c23.955,5.992 47.514,13.54 70.473,22.617l55.045,24.761c29.229,14.032 58.344,28.282 87.328,42.805c60.581,30.343 120.607,61.778 180.061,94.264c126.028,68.875 249.459,142.514 369.87,220.768l133.653,89.609l34.422,25.934c23.089,18.822 44.676,39.475 64.516,61.711c32.479,36.402 60.189,77.009 82.25,120.512c21.571,42.517 37.704,87.752 47.926,134.296l10.761,69.546l4.588,59.252c3.935,54.967 7.071,109.989 9.373,165.051c7.348,175.069 6.581,350.479 -2.335,525.478l-11.643,174.313l-4.947,38.945c-4.785,29.457 -11.921,58.523 -21.294,86.838c-14.957,45.166 -35.646,88.422 -61.413,128.411c-26.551,41.199 -58.491,78.903 -94.758,111.887c-13.52,12.28 -27.629,23.89 -42.26,34.814l-63.079,43.713c-43.337,29.343 -87.115,58.066 -131.269,86.152c-150.93,96.064 -306.448,184.96 -465.82,266.278l-150.837,74.069l-36.281,15.317c-23.109,8.834 -46.804,16.117 -70.868,21.832c-38.929,9.242 -78.84,14.337 -118.834,15.153c-39.965,0.817 -80.012,-2.612 -119.241,-10.238c-30.63,-5.944 -60.754,-14.435 -89.978,-25.359l-56.536,-24.559c-49.331,-23.53 -98.332,-47.763 -146.965,-72.714c-148.535,-76.256 -293.698,-159.11 -434.917,-248.185c-44.278,-27.939 -88.163,-56.483 -131.65,-85.646l-80.873,-55.682c-7.358,-5.487 -14.577,-11.153 -21.662,-16.999c-23.068,-19.023 -44.634,-39.892 -64.399,-62.328c-27.286,-30.96 -51.144,-64.908 -71.032,-101.061c-18.673,-33.915 -33.837,-69.758 -45.18,-106.776c-7.63,-24.901 -13.54,-50.31 -17.663,-76.028l-6.36,-57.364c-4.273,-54.49 -7.794,-109.029 -10.497,-163.617c-8.108,-164.39 -9.036,-329.141 -2.798,-493.604c2.075,-54.694 4.941,-109.361 8.627,-163.972l7.343,-93.977c0.996,-9.118 2.239,-18.223 3.685,-27.286c4.123,-25.715 10.033,-51.131 17.663,-76.028c11.343,-37.018 26.507,-72.847 45.166,-106.781c19.273,-35.011 42.273,-67.974 68.481,-98.139c20.473,-23.547 42.886,-45.4 66.964,-65.246l49.534,-36.675c43.092,-29.606 86.58,-58.64 130.476,-87.044c138.216,-89.405 280.349,-172.763 425.826,-249.801c50.49,-26.726 101.389,-52.701 152.669,-77.87l74.255,-35.749c10.7,-4.927 21.525,-9.582 32.5,-13.868c24.199,-9.432 49.055,-17.198 74.307,-23.204c27.573,-6.565 55.621,-11.042 83.863,-13.404l50.025,-1.938Z" style="fill:url(#_Linear1);fill-rule:nonzero;"/><path d="M2457.8,1938.91c-19.237,24.228 -20.677,58.09 -3.567,83.863c17.11,25.774 48.876,37.592 78.672,29.269c263.134,-73.504 700.531,-195.687 891.643,-249.072c21.955,-6.134 39.66,-22.386 47.647,-43.737c7.988,-21.351 5.296,-45.233 -7.243,-64.271c-61.161,-92.863 -158.702,-240.959 -206.581,-313.655c-16.947,-25.732 -15.47,-59.433 3.663,-83.584c71.046,-89.686 245.206,-309.538 368.704,-465.435c19.137,-24.16 20.606,-57.875 3.642,-83.608c-16.964,-25.732 -48.529,-37.67 -78.276,-29.603c-263.709,71.521 -705.638,191.376 -897.637,243.448c-21.925,5.946 -39.711,21.974 -47.898,43.164c-8.188,21.191 -5.8,45.013 6.431,64.157c61.524,96.302 161.328,252.524 209.275,327.574c16.409,25.682 14.702,58.949 -4.25,82.817c-70.003,88.156 -241.395,303.992 -364.225,458.673Z" style="fill:#fff;"/></g><g id="text-elements"><path d="M1279.59,1367.06l-436.584,0.066c-53.383,-0 -96.652,43.269 -96.652,96.652c-0,53.361 43.269,96.63 96.652,96.63l336.109,-0.044l0,200.163c-102.768,120.068 -255.314,196.275 -425.553,196.275c-305.203,0 -552.611,-255.708 -552.611,-571.176c0,-315.447 247.408,-571.176 552.611,-571.176c163.555,-0 310.816,71.708 415.353,190.617c17.998,19.309 43.663,31.366 72.145,31.366c54.519,-0 98.727,-44.187 98.727,-98.727c0,-26.648 -10.593,-50.849 -27.652,-68.694c-140.337,-154.906 -339.844,-247.867 -558.573,-247.867c-416.184,0 -753.56,342.269 -753.56,764.481c0,422.212 337.376,764.481 753.56,764.481c226.417,-0 437.261,-100.125 580.35,-265.996c35.865,-38.399 46.131,-76.011 46.131,-127.865l-0,-288.711c-0,-55.502 -44.995,-100.475 -100.475,-100.475l0.022,0Z" style="fill:#b3bdcd;fill-rule:nonzero;"/><path d="M5986.98,642.707c-55.501,0.001 -100.475,44.974 -100.475,100.475l0,1025.76l-953.875,-1105.92l-2.053,2.359c-17.409,-14.438 -39.753,-23.109 -64.108,-23.109c-55.501,-0 -100.474,44.995 -100.474,100.474l-0,1285.77c-0,55.501 44.973,100.474 100.474,100.474c55.48,0 100.475,-44.973 100.475,-100.474l0,-1032.2l935.856,1087.4c4.87,7.448 10.702,14.198 17.321,20.117l2.315,2.708l0.415,-0.371c17.386,14.438 39.753,23.131 64.129,23.131c55.479,0 100.475,-44.995 100.475,-100.475l-0,-1285.64c-0,-55.501 -44.996,-100.475 -100.475,-100.475Z" style="fill:#b3bdcd;fill-rule:nonzero;"/><path d="M7369.11,1934.96c0,0 -761.816,0.066 -761.816,0.066l0,-409.063l643.868,-0c53.383,-0 96.652,-43.27 96.652,-96.652c0,-53.383 -43.269,-96.653 -96.652,-96.653l-643.868,0l0,-496.41l761.816,0.044c53.383,-0 96.653,-43.292 96.653,-96.674c-0,-53.383 -43.27,-96.631 -96.653,-96.631l-862.29,-0.065c-55.501,-0 -100.475,44.995 -100.475,100.475l0,1284.46c0,55.502 44.974,100.475 100.475,100.475l862.29,-0.066c53.383,0 96.653,-43.269 96.653,-96.652c-0,-53.382 -43.27,-96.652 -96.653,-96.652Z" style="fill:#b3bdcd;fill-rule:nonzero;"/></g><text id="version" x="5691.94px" y="515.585px" style="font-family:'PollyRounded-Bold', 'Polly Rounded';font-weight:700;font-size:500.981px;fill:#fbbf00;">ALPHA</text></g><defs><linearGradient id="_Linear1" x1="0" y1="0" x2="1" y2="0" gradientUnits="userSpaceOnUse" gradientTransform="matrix(35.5112,-1809.3,1809.3,35.5112,3006.21,2285.92)"><stop offset="0" style="stop-color:#0053d3;stop-opacity:1"/><stop offset="1" style="stop-color:#0063fb;stop-opacity:1"/></linearGradient></defs></svg>