<?xml version="1.0" encoding="utf-8"?>
<!-- Generator: Adobe Illustrator 22.1.0, SVG Export Plug-In . SVG Version: 6.00 Build 0)  -->
<svg version="1.1" id="Layer_1" xmlns="http://www.w3.org/2000/svg" xmlns:xlink="http://www.w3.org/1999/xlink" x="0px" y="0px"
	 viewBox="0 0 1643 500" style="enable-background:new 0 0 1643 500;" xml:space="preserve">
<style type="text/css">
	.st0{fill:none;}
	.st1{enable-background:new    ;}
	.st2{display:none;fill:#E5E5E5;}
	.st3{fill:url(#SVGID_1_);}
</style>
<rect x="491.5" y="115.6" class="st0" width="1071" height="190"/>
<g class="st1">
	<path d="M640.4,288.1h-39.2l-57.9-101.7v101.7h-39.4V124.6h39.4l57.8,101.7V124.6h39.3V288.1z"/>
	<path d="M658.8,226.3c0-12.1,2.4-22.9,7.1-32.4c4.7-9.5,11.5-16.8,20.3-21.8c8.8-5.1,19.2-7.6,31.1-7.6c18.2,0,32.5,5.6,43,16.9
		c10.5,11.3,15.7,26.6,15.7,46v1.3c0,18.9-5.3,34-15.8,45.1c-10.5,11.1-24.8,16.7-42.7,16.7c-17.3,0-31.2-5.2-41.7-15.6
		c-10.5-10.4-16.1-24.4-17-42.2L658.8,226.3z M696.7,228.6c0,11.2,1.8,19.5,5.3,24.7c3.5,5.2,8.7,7.9,15.6,7.9
		c13.5,0,20.4-10.4,20.7-31.1v-3.8c0-21.8-7-32.7-20.9-32.7c-12.7,0-19.5,9.4-20.6,28.2L696.7,228.6z"/>
	<path d="M788,226.5c0-19.2,4.2-34.4,12.5-45.5c8.3-11.1,19.9-16.6,34.8-16.6c10.9,0,20,4.3,27.4,12.8v-61.5h38v172.5h-34l-1.9-13
		c-7.8,10.2-17.7,15.3-29.6,15.3c-14.5,0-25.9-5.5-34.4-16.6C792.2,262.7,788,246.9,788,226.5z M825.8,228.8
		c0,21.6,6.3,32.3,18.9,32.3c8.4,0,14.4-3.5,18-10.6v-46.3c-3.4-7.2-9.4-10.8-17.7-10.8c-11.7,0-18,9.4-19,28.3L825.8,228.8z"/>
	<path d="M980.9,290.4c-18.6,0-33.7-5.6-45.3-16.7c-11.5-11.1-17.3-25.6-17.3-43.4v-3.1c0-12.4,2.3-23.4,6.9-32.9
		c4.6-9.5,11.3-16.9,20.2-22.1c8.8-5.2,19.3-7.8,31.4-7.8c17.1,0,30.5,5.3,40.4,15.9c9.9,10.6,14.8,25.4,14.8,44.3v14.7h-75.2
		c1.3,6.8,4.3,12.2,8.9,16.1c4.6,3.9,10.5,5.8,17.7,5.8c12,0,21.3-4.2,28.1-12.6l17.3,20.4c-4.7,6.5-11.4,11.7-20,15.6
		C1000.2,288.5,990.9,290.4,980.9,290.4z M976.6,193.6c-11.1,0-17.7,7.3-19.8,22H995v-2.9c0.1-6.1-1.4-10.8-4.6-14.1
		C987.2,195.3,982.6,193.6,976.6,193.6z"/>
</g>
<g class="st1">
	<path d="M1230.3,270.6c-4.1,5.7-11.3,10.4-21.7,14.2s-21.7,5.6-34.1,5.6c-12.1,0-22.9-3-32.5-8.9c-9.5-5.9-16.9-14.3-22.3-25
		c-5.4-10.8-8.1-23-8.3-36.6v-28.1c0-13.4,2.6-25.4,7.7-36c5.2-10.6,12.4-18.8,21.8-24.7c9.4-5.8,19.9-8.7,31.6-8.7
		c16.2,0,29.5,4.2,39.7,12.5s16.2,19.7,17.8,34h-6.1c-2-13-7.5-23-16.3-30c-8.8-7-20.6-10.4-35.2-10.4c-16.5,0-29.8,5.9-39.9,17.6
		c-10.1,11.8-15.2,27.2-15.2,46.4v26.1c0,12.8,2.4,24.2,7.1,34.3c4.8,10,11.5,17.8,20.1,23.3c8.6,5.5,18.5,8.3,29.7,8.3
		c10.9,0,21.1-1.6,30.4-4.8c9.4-3.2,15.8-7.1,19.3-11.7v-47.7h-50V214h56V270.6z"/>
	<path d="M1279,219.1v69.1h-6.1V124.6h51.1c16.7,0,29.7,4.2,38.9,12.6c9.2,8.4,13.9,20.1,13.9,35.1c0,14.8-4.5,26.3-13.5,34.4
		c-9,8.1-21.8,12.2-38.5,12.4H1279z M1279,213h45c14.7,0,26.2-3.6,34.4-10.7c8.2-7.1,12.3-17,12.3-29.8c0-13.2-4.1-23.5-12.3-30.8
		c-8.2-7.4-19.7-11.1-34.4-11.1h-45V213z"/>
	<path d="M1521.2,124.6v110.7c0,17.3-5,30.8-15,40.5c-10,9.7-23.6,14.5-40.8,14.5c-17.1,0-30.7-4.8-40.8-14.5
		c-10-9.7-15.1-23-15.2-40V124.6h6.1v110.5c0,15.1,4.5,27.1,13.6,35.9c9.1,8.8,21.2,13.3,36.2,13.3s27.1-4.4,36.2-13.3
		c9.1-8.8,13.6-20.8,13.6-36V124.6H1521.2z"/>
</g>
<g class="st1">
	<path d="M537.7,358.3h-22.9l-5.2,14.2h-4.5l19.1-50.5h4.1l19.1,50.5H543L537.7,358.3z M516.1,354.7h20.2l-10.1-27.5L516.1,354.7z"
		/>
	<path d="M609.7,372.5h-4.3l-29-43.2v43.2h-4.3V322h4.3l29.1,43.2V322h4.2V372.5z"/>
	<path d="M659.8,350c0,4.6-0.8,8.7-2.4,12.2c-1.6,3.5-3.9,6.2-6.9,8.1c-3,1.9-6.4,2.8-10.3,2.8c-5.9,0-10.7-2.1-14.3-6.3
		c-3.6-4.2-5.4-9.9-5.4-17.1v-5.2c0-4.6,0.8-8.7,2.4-12.2c1.6-3.5,3.9-6.3,6.9-8.2c3-1.9,6.4-2.9,10.3-2.9s7.3,0.9,10.3,2.8
		c3,1.9,5.3,4.5,6.9,7.9c1.6,3.4,2.5,7.4,2.5,11.9V350z M655.5,344.5c0-6.1-1.4-10.8-4.1-14.3c-2.8-3.4-6.5-5.2-11.3-5.2
		c-4.7,0-8.4,1.7-11.2,5.2c-2.8,3.5-4.2,8.3-4.2,14.5v5.3c0,6,1.4,10.7,4.2,14.2c2.8,3.5,6.5,5.3,11.3,5.3c4.8,0,8.6-1.7,11.3-5.2
		c2.7-3.5,4.1-8.3,4.1-14.4V344.5z"/>
	<path d="M670.5,372.5V322h14.1c4.1,0,7.8,0.9,11.1,2.8c3.3,1.9,5.8,4.6,7.7,8.1c1.8,3.5,2.8,7.5,2.8,12v4.6c0,4.5-0.9,8.5-2.7,12
		c-1.8,3.5-4.4,6.2-7.7,8.1c-3.3,1.9-7.1,2.8-11.4,2.8H670.5z M674.8,325.7v43.3h9.6c5.3,0,9.6-1.8,12.8-5.3
		c3.2-3.5,4.8-8.3,4.8-14.3v-4.4c0-5.8-1.6-10.5-4.7-13.9c-3.2-3.5-7.3-5.2-12.5-5.3H674.8z"/>
	<path d="M744.9,348.3h-23.6v20.6h27.1v3.6H717V322h31.2v3.6h-27v19.1h23.6V348.3z"/>
	<path d="M756.1,370c0-0.8,0.3-1.5,0.8-2.1c0.5-0.6,1.2-0.8,2.2-0.8c0.9,0,1.7,0.3,2.2,0.8s0.8,1.3,0.8,2.1c0,0.8-0.3,1.5-0.8,2
		c-0.5,0.5-1.3,0.8-2.2,0.8c-0.9,0-1.6-0.3-2.2-0.8C756.3,371.5,756.1,370.8,756.1,370z"/>
	<path d="M796.7,322h4.3v35.5c0,4.8-1.4,8.6-4.1,11.4c-2.8,2.8-6.5,4.3-11.1,4.3c-4.9,0-8.7-1.3-11.3-3.8c-2.6-2.6-4-6.1-4-10.7h4.3
		c0,3.7,1,6.4,2.9,8.2c1.9,1.8,4.6,2.8,8.1,2.8c3.2,0,5.8-1.1,7.9-3.2c2-2.1,3.1-5,3.1-8.7V322z"/>
	<path d="M842,360.1c0-2.8-1-5-2.9-6.6c-2-1.6-5.6-3.2-10.8-4.6c-5.2-1.5-9-3.1-11.4-4.8c-3.4-2.4-5.1-5.7-5.1-9.6
		c0-3.9,1.6-7,4.8-9.4s7.2-3.6,12.2-3.6c3.4,0,6.4,0.6,9,1.9c2.6,1.3,4.7,3.1,6.2,5.4c1.5,2.3,2.2,4.9,2.2,7.7h-4.3
		c0-3.5-1.2-6.2-3.5-8.3c-2.4-2.1-5.5-3.1-9.5-3.1c-3.9,0-6.9,0.9-9.2,2.6c-2.3,1.7-3.4,4-3.4,6.8c0,2.6,1,4.7,3.1,6.3
		c2.1,1.6,5.4,3,9.9,4.3c4.5,1.2,8,2.5,10.3,3.9c2.3,1.3,4.1,2.9,5.3,4.8c1.2,1.8,1.8,4,1.8,6.6c0,4-1.6,7.2-4.8,9.6
		c-3.2,2.4-7.4,3.6-12.6,3.6c-3.6,0-6.8-0.6-9.8-1.9c-3-1.3-5.2-3.1-6.8-5.3c-1.5-2.3-2.3-4.9-2.3-7.9h4.3c0,3.6,1.3,6.4,4,8.4
		c2.7,2.1,6.2,3.1,10.6,3.1c3.9,0,7.1-0.9,9.5-2.6C840.8,365.3,842,363,842,360.1z"/>
	<path d="M909.2,366.5c-1.5,2.1-3.8,3.7-7,4.9c-3.2,1.2-6.7,1.8-10.6,1.8c-4,0-7.5-0.9-10.5-2.8c-3.1-1.9-5.5-4.6-7.1-8
		c-1.7-3.5-2.5-7.4-2.6-11.9V344c0-7,1.8-12.5,5.3-16.6c3.5-4.1,8.3-6.1,14.2-6.1c5.2,0,9.4,1.3,12.5,4c3.2,2.6,5,6.3,5.7,10.9h-4.3
		c-0.6-3.7-2.1-6.5-4.5-8.4c-2.4-1.9-5.5-2.9-9.4-2.9c-4.7,0-8.4,1.7-11.2,5c-2.8,3.4-4.1,8.1-4.1,14.2v6c0,3.8,0.7,7.2,2,10.2
		c1.3,2.9,3.2,5.2,5.6,6.9c2.4,1.6,5.2,2.4,8.4,2.4c3.7,0,6.8-0.6,9.5-1.7c1.7-0.8,3-1.7,3.8-2.7v-13h-13.6v-3.6h17.8V366.5z"/>
	<path d="M925.6,352v20.6h-4.3V322h17.2c5.2,0,9.4,1.3,12.4,4c3,2.7,4.6,6.4,4.6,11.1c0,4.7-1.5,8.4-4.4,11
		c-2.9,2.6-7.2,3.9-12.7,3.9H925.6z M925.6,348.4h12.9c4.1,0,7.3-1,9.5-3c2.2-2,3.3-4.7,3.3-8.2c0-3.5-1.1-6.3-3.2-8.4
		c-2.2-2.1-5.2-3.1-9.2-3.2h-13.2V348.4z"/>
	<path d="M1001.4,366.5c-1.5,2.1-3.8,3.7-7,4.9c-3.2,1.2-6.7,1.8-10.6,1.8c-4,0-7.5-0.9-10.5-2.8c-3.1-1.9-5.5-4.6-7.1-8
		c-1.7-3.5-2.5-7.4-2.6-11.9V344c0-7,1.8-12.5,5.3-16.6c3.5-4.1,8.3-6.1,14.2-6.1c5.2,0,9.4,1.3,12.5,4c3.2,2.6,5,6.3,5.7,10.9h-4.3
		c-0.6-3.7-2.1-6.5-4.5-8.4c-2.4-1.9-5.5-2.9-9.4-2.9c-4.7,0-8.4,1.7-11.2,5c-2.8,3.4-4.1,8.1-4.1,14.2v6c0,3.8,0.7,7.2,2,10.2
		c1.3,2.9,3.2,5.2,5.6,6.9c2.4,1.6,5.2,2.4,8.4,2.4c3.7,0,6.8-0.6,9.5-1.7c1.7-0.8,3-1.7,3.8-2.7v-13h-13.6v-3.6h17.8V366.5z"/>
	<path d="M1017.8,352v20.6h-4.3V322h17.2c5.2,0,9.4,1.3,12.4,4c3,2.7,4.6,6.4,4.6,11.1c0,4.7-1.5,8.4-4.4,11
		c-2.9,2.6-7.2,3.9-12.7,3.9H1017.8z M1017.8,348.4h12.9c4.1,0,7.3-1,9.5-3c2.2-2,3.3-4.7,3.3-8.2c0-3.5-1.1-6.3-3.2-8.4
		c-2.2-2.1-5.2-3.1-9.2-3.2h-13.2V348.4z"/>
	<path d="M1092,322v34.5c0,3.4-0.8,6.4-2.3,8.9c-1.5,2.5-3.6,4.5-6.3,5.8c-2.7,1.4-5.8,2-9.3,2c-5.3,0-9.6-1.5-12.8-4.4
		s-4.9-6.9-5-12V322h4.2v34.1c0,4.3,1.2,7.6,3.6,9.9c2.4,2.3,5.7,3.5,9.9,3.5s7.4-1.2,9.9-3.5c2.4-2.4,3.6-5.6,3.6-9.8V322H1092z"/>
	<path d="M1149.1,348.3h-23.6v20.6h27.1v3.6h-31.4V322h31.2v3.6h-27v19.1h23.6V348.3z"/>
	<path d="M1199.2,372.5h-4.3l-29-43.2v43.2h-4.3V322h4.3l29.1,43.2V322h4.2V372.5z"/>
	<path d="M1248.4,366.5c-1.5,2.1-3.8,3.7-7,4.9c-3.2,1.2-6.7,1.8-10.6,1.8c-4,0-7.5-0.9-10.5-2.8c-3.1-1.9-5.5-4.6-7.1-8
		c-1.7-3.5-2.5-7.4-2.6-11.9V344c0-7,1.8-12.5,5.3-16.6c3.5-4.1,8.3-6.1,14.2-6.1c5.2,0,9.4,1.3,12.5,4c3.2,2.6,5,6.3,5.7,10.9h-4.3
		c-0.6-3.7-2.1-6.5-4.5-8.4c-2.4-1.9-5.5-2.9-9.4-2.9c-4.7,0-8.4,1.7-11.2,5c-2.8,3.4-4.1,8.1-4.1,14.2v6c0,3.8,0.7,7.2,2,10.2
		c1.3,2.9,3.2,5.2,5.6,6.9c2.4,1.6,5.2,2.4,8.4,2.4c3.7,0,6.8-0.6,9.5-1.7c1.7-0.8,3-1.7,3.8-2.7v-13h-13.6v-3.6h17.8V366.5z"/>
	<path d="M1265.7,372.5h-4.3V322h4.3V372.5z"/>
	<path d="M1317,372.5h-4.3l-29-43.2v43.2h-4.3V322h4.3l29.1,43.2V322h4.2V372.5z"/>
	<path d="M1357.7,348.3h-23.6v20.6h27.1v3.6h-31.4V322h31.2v3.6h-27v19.1h23.6V348.3z"/>
</g>
<polygon class="st2" points="482.1,155.8 292.3,254.8 102.4,155.8 292.3,56.8 "/>
<linearGradient id="SVGID_1_" gradientUnits="userSpaceOnUse" x1="111.934" y1="250" x2="388.0375" y2="250">
	<stop  offset="0" style="stop-color:#D821D8"/>
	<stop  offset="1" style="stop-color:#FF2A42"/>
</linearGradient>
<path class="st3" d="M388,173.1c-18.3,6.7-36.5,13.8-55,19.9c-16.5,5.5-33.1,15-50.6,17c-15.8,1.8-31.3-3.5-47.2-2.9
	c-15.5,0.6-31.5,5.5-45,13.1c-22.5,12.6-40.9,33.2-49.4,57.6c-13.5,37.8-4.6,78.2,19.9,106.5c-43.5-41.1-61.1-105.5-39.7-165.5
	C150,138,239,95.8,319.9,124.8C346.4,134.3,370.5,151,388,173.1z"/>
<path d="M400.4,220.9c-12.8,10.9-25.6,21.8-38.4,32.6c-9.1,7.7-18,15.7-27,23.7c-12.9,11.4-25.8,22.7-39.4,32.9
	c-15.5,11.6-37.5,8.9-47.7-8.4c-7.7-13.1-5.2-31.1,6.8-40.8c0.9-0.7,1.8-1.4,2.8-2c12.8-8.2,30.2-12,44.5-17.4c1.4-0.5,2.7-1,4-1.5
	c12.2-4.6,24.5-9.2,36.7-13.8c16.6-6.2,33.1-12.5,49.7-18.7c2.9-1.1,5.5-0.5,7.5,1c2,1.6,3.3,4.1,3.2,6.7
	C403.1,217.3,402.3,219.3,400.4,220.9z"/>
</svg>
