<?xml version="1.0" encoding="utf-8"?>
<!-- Generator: Adobe Illustrator 22.1.0, SVG Export Plug-In . SVG Version: 6.00 Build 0)  -->
<svg version="1.1" id="Layer_1" xmlns="http://www.w3.org/2000/svg" xmlns:xlink="http://www.w3.org/1999/xlink" x="0px" y="0px"
	 viewBox="0 0 1643 500" style="enable-background:new 0 0 1643 500;" xml:space="preserve">
<style type="text/css">
	.st0{fill:url(#SVGID_1_);}
</style>
<g>
	<linearGradient id="SVGID_1_" gradientUnits="userSpaceOnUse" x1="17.235" y1="178.9255" x2="485.6012" y2="178.9255">
		<stop  offset="0" style="stop-color:#FF15CB"/>
		<stop  offset="1" style="stop-color:#15EEFF"/>
	</linearGradient>
	<polygon class="st0" points="132.1,179.2 17.2,108.1 131.7,36.5 251.2,107.6 367.9,36 485.1,107.1 368.4,178.7 485.6,249.8 
		368.9,321.3 251.7,250.2 132.6,321.8 17.7,250.7 	"/>
</g>
<g>
	<polygon points="132.1,322.1 17.2,251.1 131.7,179.5 251.2,250.6 367.9,179 485.1,250.1 368.4,321.7 485.6,392.8 368.9,464.3 
		251.7,393.2 132.6,464.8 17.7,393.7 	"/>
</g>
<g>
	<path d="M683.9,284.5h-39.2l-57.9-101.7v101.7h-39.4V121h39.4l57.8,101.7V121h39.3V284.5z"/>
	<path d="M702.3,222.6c0-12.1,2.4-22.9,7.1-32.4c4.7-9.5,11.5-16.8,20.3-21.8c8.8-5.1,19.2-7.6,31.1-7.6c18.2,0,32.5,5.6,43,16.9
		c10.5,11.3,15.7,26.6,15.7,46v1.3c0,18.9-5.3,34-15.8,45.1c-10.5,11.1-24.8,16.7-42.7,16.7c-17.3,0-31.2-5.2-41.7-15.6
		c-10.5-10.4-16.1-24.4-17-42.2L702.3,222.6z M740.2,225c0,11.2,1.8,19.5,5.3,24.7c3.5,5.2,8.7,7.9,15.6,7.9
		c13.5,0,20.4-10.4,20.7-31.1v-3.8c0-21.8-7-32.7-20.9-32.7c-12.7,0-19.5,9.4-20.6,28.2L740.2,225z"/>
	<path d="M831.5,222.8c0-19.2,4.2-34.4,12.5-45.5c8.3-11.1,19.9-16.6,34.8-16.6c10.9,0,20,4.3,27.4,12.8V112h38v172.5h-34l-1.9-13
		c-7.8,10.2-17.7,15.3-29.6,15.3c-14.5,0-25.9-5.5-34.4-16.6C835.7,259,831.5,243.3,831.5,222.8z M869.3,225.2
		c0,21.6,6.3,32.3,18.9,32.3c8.4,0,14.4-3.5,18-10.6v-46.3c-3.4-7.2-9.4-10.8-17.7-10.8c-11.7,0-18,9.4-19,28.3L869.3,225.2z"/>
	<path d="M1024.4,286.7c-18.6,0-33.7-5.6-45.3-16.7c-11.5-11.1-17.3-25.6-17.3-43.4v-3.1c0-12.4,2.3-23.4,6.9-32.9
		c4.6-9.5,11.3-16.9,20.2-22.1c8.8-5.2,19.3-7.8,31.4-7.8c17.1,0,30.5,5.3,40.4,15.9c9.9,10.6,14.8,25.4,14.8,44.3v14.7h-75.2
		c1.3,6.8,4.3,12.2,8.9,16.1c4.6,3.9,10.5,5.8,17.7,5.8c12,0,21.3-4.2,28.1-12.6l17.3,20.4c-4.7,6.5-11.4,11.7-20,15.6
		C1043.7,284.8,1034.4,286.7,1024.4,286.7z M1020.1,189.9c-11.1,0-17.7,7.3-19.8,22h38.2V209c0.1-6.1-1.4-10.8-4.6-14.1
		C1030.7,191.6,1026.1,189.9,1020.1,189.9z"/>
	<path d="M1272.9,267c-4.1,5.7-11.3,10.4-21.7,14.2s-21.7,5.6-34.1,5.6c-12.1,0-22.9-3-32.5-8.9c-9.5-5.9-16.9-14.3-22.3-25
		c-5.4-10.8-8.1-23-8.3-36.6v-28.1c0-13.4,2.6-25.4,7.7-36c5.2-10.6,12.4-18.8,21.8-24.7c9.4-5.8,19.9-8.7,31.6-8.7
		c16.2,0,29.5,4.2,39.7,12.5c10.2,8.3,16.2,19.7,17.8,34h-6.1c-2-13-7.5-23-16.3-30c-8.8-7-20.6-10.4-35.2-10.4
		c-16.5,0-29.8,5.9-39.9,17.6c-10.1,11.8-15.2,27.2-15.2,46.4v26.1c0,12.8,2.4,24.2,7.1,34.3c4.8,10,11.5,17.8,20.1,23.3
		c8.6,5.5,18.5,8.3,29.7,8.3c10.9,0,21.1-1.6,30.4-4.8c9.4-3.2,15.8-7.1,19.3-11.7v-47.7h-50v-6.1h56V267z"/>
	<path d="M1321.7,215.4v69.1h-6.1V121h51.1c16.7,0,29.7,4.2,38.9,12.6c9.2,8.4,13.9,20.1,13.9,35.1c0,14.8-4.5,26.3-13.5,34.4
		c-9,8.1-21.8,12.2-38.5,12.4H1321.7z M1321.7,209.4h45c14.7,0,26.2-3.6,34.4-10.7c8.2-7.1,12.3-17,12.3-29.8
		c0-13.2-4.1-23.5-12.3-30.8c-8.2-7.4-19.7-11.1-34.4-11.1h-45V209.4z"/>
	<path d="M1563.8,121v110.7c0,17.3-5,30.8-15,40.5c-10,9.7-23.6,14.5-40.8,14.5c-17.1,0-30.7-4.8-40.8-14.5c-10-9.7-15.1-23-15.2-40
		V121h6.1v110.5c0,15.1,4.5,27.1,13.6,35.9c9.1,8.8,21.2,13.3,36.2,13.3s27.1-4.4,36.2-13.3c9.1-8.8,13.6-20.8,13.6-36V121H1563.8z"
		/>
</g>
<g>
	<path d="M581.2,354.7h-22.9l-5.2,14.2h-4.5l19.1-50.5h4.1l19.1,50.5h-4.4L581.2,354.7z M559.6,351.1h20.2l-10.1-27.5L559.6,351.1z"
		/>
	<path d="M653.2,368.9h-4.3l-29-43.2v43.2h-4.3v-50.5h4.3l29.1,43.2v-43.2h4.2V368.9z"/>
	<path d="M703.3,346.4c0,4.6-0.8,8.7-2.4,12.2c-1.6,3.5-3.9,6.2-6.9,8.1c-3,1.9-6.4,2.8-10.3,2.8c-5.9,0-10.7-2.1-14.3-6.3
		c-3.6-4.2-5.4-9.9-5.4-17.1V341c0-4.6,0.8-8.7,2.4-12.2c1.6-3.5,3.9-6.3,6.9-8.2c3-1.9,6.4-2.9,10.3-2.9s7.3,0.9,10.3,2.8
		c3,1.9,5.3,4.5,6.9,7.9c1.6,3.4,2.5,7.4,2.5,11.9V346.4z M699,340.9c0-6.1-1.4-10.8-4.1-14.3c-2.8-3.4-6.5-5.2-11.3-5.2
		c-4.7,0-8.4,1.7-11.2,5.2c-2.8,3.5-4.2,8.3-4.2,14.5v5.3c0,6,1.4,10.7,4.2,14.2c2.8,3.5,6.5,5.3,11.3,5.3c4.8,0,8.6-1.7,11.3-5.2
		c2.7-3.5,4.1-8.3,4.1-14.4V340.9z"/>
	<path d="M714,368.9v-50.5h14.1c4.1,0,7.8,0.9,11.1,2.8c3.3,1.9,5.8,4.6,7.7,8.1c1.8,3.5,2.8,7.5,2.8,12v4.6c0,4.5-0.9,8.5-2.7,12
		c-1.8,3.5-4.4,6.2-7.7,8.1c-3.3,1.9-7.1,2.8-11.4,2.8H714z M718.3,322v43.3h9.6c5.3,0,9.6-1.8,12.8-5.3c3.2-3.5,4.8-8.3,4.8-14.3
		v-4.4c0-5.8-1.6-10.5-4.7-13.9c-3.2-3.5-7.3-5.2-12.5-5.3H718.3z"/>
	<path d="M788.4,344.7h-23.6v20.6h27.1v3.6h-31.4v-50.5h31.2v3.6h-27v19.1h23.6V344.7z"/>
	<path d="M799.6,366.4c0-0.8,0.3-1.5,0.8-2.1c0.5-0.6,1.2-0.8,2.2-0.8c0.9,0,1.7,0.3,2.2,0.8c0.5,0.6,0.8,1.3,0.8,2.1
		c0,0.8-0.3,1.5-0.8,2c-0.5,0.5-1.3,0.8-2.2,0.8c-0.9,0-1.6-0.3-2.2-0.8C799.8,367.9,799.6,367.2,799.6,366.4z"/>
	<path d="M840.2,318.4h4.3v35.5c0,4.8-1.4,8.6-4.1,11.4c-2.8,2.8-6.5,4.3-11.1,4.3c-4.9,0-8.7-1.3-11.3-3.8c-2.6-2.6-4-6.1-4-10.7
		h4.3c0,3.7,1,6.4,2.9,8.2c1.9,1.8,4.6,2.8,8.1,2.8c3.2,0,5.8-1.1,7.9-3.2c2-2.1,3.1-5,3.1-8.7V318.4z"/>
	<path d="M885.5,356.5c0-2.8-1-5-2.9-6.6c-2-1.6-5.6-3.2-10.8-4.6c-5.2-1.5-9-3.1-11.4-4.8c-3.4-2.4-5.1-5.7-5.1-9.6
		c0-3.9,1.6-7,4.8-9.4s7.2-3.6,12.2-3.6c3.4,0,6.4,0.6,9,1.9c2.6,1.3,4.7,3.1,6.2,5.4c1.5,2.3,2.2,4.9,2.2,7.7h-4.3
		c0-3.5-1.2-6.2-3.5-8.3c-2.4-2.1-5.5-3.1-9.5-3.1c-3.9,0-6.9,0.9-9.2,2.6c-2.3,1.7-3.4,4-3.4,6.8c0,2.6,1,4.7,3.1,6.3
		c2.1,1.6,5.4,3,9.9,4.3c4.5,1.2,8,2.5,10.3,3.9c2.3,1.3,4.1,2.9,5.3,4.8c1.2,1.8,1.8,4,1.8,6.6c0,4-1.6,7.2-4.8,9.6
		c-3.2,2.4-7.4,3.6-12.6,3.6c-3.6,0-6.8-0.6-9.8-1.9c-3-1.3-5.2-3.1-6.8-5.3c-1.5-2.3-2.3-4.9-2.3-7.9h4.3c0,3.6,1.3,6.4,4,8.4
		c2.7,2.1,6.2,3.1,10.6,3.1c3.9,0,7.1-0.9,9.5-2.6C884.3,361.6,885.5,359.3,885.5,356.5z"/>
	<path d="M952.7,362.9c-1.5,2.1-3.8,3.7-7,4.9c-3.2,1.2-6.7,1.8-10.6,1.8c-4,0-7.5-0.9-10.5-2.8c-3.1-1.9-5.5-4.6-7.1-8
		c-1.7-3.5-2.5-7.4-2.6-11.9v-6.4c0-7,1.8-12.5,5.3-16.6c3.5-4.1,8.3-6.1,14.2-6.1c5.2,0,9.4,1.3,12.5,4c3.2,2.6,5,6.3,5.7,10.9
		h-4.3c-0.6-3.7-2.1-6.5-4.5-8.4c-2.4-1.9-5.5-2.9-9.4-2.9c-4.7,0-8.4,1.7-11.2,5c-2.8,3.4-4.1,8.1-4.1,14.2v6c0,3.8,0.7,7.2,2,10.2
		c1.3,2.9,3.2,5.2,5.6,6.9c2.4,1.6,5.2,2.4,8.4,2.4c3.7,0,6.8-0.6,9.5-1.7c1.7-0.8,3-1.7,3.8-2.7v-13h-13.6v-3.6h17.8V362.9z"/>
	<path d="M969.1,348.3v20.6h-4.3v-50.5H982c5.2,0,9.4,1.3,12.4,4c3,2.7,4.6,6.4,4.6,11.1c0,4.7-1.5,8.4-4.4,11
		c-2.9,2.6-7.2,3.9-12.7,3.9H969.1z M969.1,344.7H982c4.1,0,7.3-1,9.5-3c2.2-2,3.3-4.7,3.3-8.2c0-3.5-1.1-6.3-3.2-8.4
		c-2.2-2.1-5.2-3.1-9.2-3.2h-13.2V344.7z"/>
	<path d="M1044.9,362.9c-1.5,2.1-3.8,3.7-7,4.9c-3.2,1.2-6.7,1.8-10.6,1.8c-4,0-7.5-0.9-10.5-2.8c-3.1-1.9-5.5-4.6-7.1-8
		c-1.7-3.5-2.5-7.4-2.6-11.9v-6.4c0-7,1.8-12.5,5.3-16.6c3.5-4.1,8.3-6.1,14.2-6.1c5.2,0,9.4,1.3,12.5,4c3.2,2.6,5,6.3,5.7,10.9
		h-4.3c-0.6-3.7-2.1-6.5-4.5-8.4c-2.4-1.9-5.5-2.9-9.4-2.9c-4.7,0-8.4,1.7-11.2,5c-2.8,3.4-4.1,8.1-4.1,14.2v6c0,3.8,0.7,7.2,2,10.2
		c1.3,2.9,3.2,5.2,5.6,6.9c2.4,1.6,5.2,2.4,8.4,2.4c3.7,0,6.8-0.6,9.5-1.7c1.7-0.8,3-1.7,3.8-2.7v-13h-13.6v-3.6h17.8V362.9z"/>
	<path d="M1061.3,348.3v20.6h-4.3v-50.5h17.2c5.2,0,9.4,1.3,12.4,4c3,2.7,4.6,6.4,4.6,11.1c0,4.7-1.5,8.4-4.4,11
		c-2.9,2.6-7.2,3.9-12.7,3.9H1061.3z M1061.3,344.7h12.9c4.1,0,7.3-1,9.5-3c2.2-2,3.3-4.7,3.3-8.2c0-3.5-1.1-6.3-3.2-8.4
		c-2.2-2.1-5.2-3.1-9.2-3.2h-13.2V344.7z"/>
	<path d="M1135.5,318.4v34.5c0,3.4-0.8,6.4-2.3,8.9c-1.5,2.5-3.6,4.5-6.3,5.8c-2.7,1.4-5.8,2-9.3,2c-5.3,0-9.6-1.5-12.8-4.4
		s-4.9-6.9-5-12v-34.8h4.2v34.1c0,4.3,1.2,7.6,3.6,9.9c2.4,2.3,5.7,3.5,9.9,3.5s7.4-1.2,9.9-3.5c2.4-2.4,3.6-5.6,3.6-9.8v-34.2
		H1135.5z"/>
	<path d="M1192.6,344.7H1169v20.6h27.1v3.6h-31.4v-50.5h31.2v3.6h-27v19.1h23.6V344.7z"/>
	<path d="M1242.7,368.9h-4.3l-29-43.2v43.2h-4.3v-50.5h4.3l29.1,43.2v-43.2h4.2V368.9z"/>
	<path d="M1291.9,362.9c-1.5,2.1-3.8,3.7-7,4.9c-3.2,1.2-6.7,1.8-10.6,1.8c-4,0-7.5-0.9-10.5-2.8c-3.1-1.9-5.5-4.6-7.1-8
		c-1.7-3.5-2.5-7.4-2.6-11.9v-6.4c0-7,1.8-12.5,5.3-16.6c3.5-4.1,8.3-6.1,14.2-6.1c5.2,0,9.4,1.3,12.5,4c3.2,2.6,5,6.3,5.7,10.9
		h-4.3c-0.6-3.7-2.1-6.5-4.5-8.4c-2.4-1.9-5.5-2.9-9.4-2.9c-4.7,0-8.4,1.7-11.2,5c-2.8,3.4-4.1,8.1-4.1,14.2v6c0,3.8,0.7,7.2,2,10.2
		c1.3,2.9,3.2,5.2,5.6,6.9c2.4,1.6,5.2,2.4,8.4,2.4c3.7,0,6.8-0.6,9.5-1.7c1.7-0.8,3-1.7,3.8-2.7v-13h-13.6v-3.6h17.8V362.9z"/>
	<path d="M1309.2,368.9h-4.3v-50.5h4.3V368.9z"/>
	<path d="M1360.5,368.9h-4.3l-29-43.2v43.2h-4.3v-50.5h4.3l29.1,43.2v-43.2h4.2V368.9z"/>
	<path d="M1401.2,344.7h-23.6v20.6h27.1v3.6h-31.4v-50.5h31.2v3.6h-27v19.1h23.6V344.7z"/>
</g>
</svg>
